<svg width="144" height="56" viewBox="0 0 144 56" fill="none" xmlns="http://www.w3.org/2000/svg">
<rect x="0.5" y="0.5" width="143" height="55" rx="27.5" stroke="#67C9CB"/>
<path d="M22.67 28.842V27.512H25.148C25.6427 27.512 26.0253 27.386 26.296 27.134C26.576 26.8727 26.716 26.5133 26.716 26.056C26.716 25.6453 26.5807 25.3 26.31 25.02C26.0393 24.74 25.6567 24.6 25.162 24.6H22.67V23.2H25.232C25.848 23.2 26.3893 23.326 26.856 23.578C27.3227 23.8207 27.682 24.1567 27.934 24.586C28.1953 25.006 28.326 25.4867 28.326 26.028C28.326 26.5973 28.1953 27.092 27.934 27.512C27.682 27.932 27.3227 28.2587 26.856 28.492C26.3893 28.7253 25.848 28.842 25.232 28.842H22.67ZM21.564 33V23.2H23.174V33H21.564ZM26.94 33L23.51 28.744L25.008 28.198L28.97 33H26.94ZM32.8705 33.14C32.1985 33.14 31.5919 32.9907 31.0505 32.692C30.5185 32.384 30.0939 31.964 29.7765 31.432C29.4685 30.9 29.3145 30.3027 29.3145 29.64C29.3145 28.9773 29.4685 28.3847 29.7765 27.862C30.0845 27.33 30.4999 26.91 31.0225 26.602C31.5545 26.294 32.1425 26.14 32.7865 26.14C33.4119 26.14 33.9625 26.2847 34.4385 26.574C34.9239 26.8633 35.3019 27.26 35.5725 27.764C35.8525 28.268 35.9925 28.842 35.9925 29.486C35.9925 29.598 35.9832 29.7147 35.9645 29.836C35.9552 29.948 35.9365 30.074 35.9085 30.214H30.3925V28.954H35.1105L34.5365 29.458C34.5179 29.0473 34.4385 28.702 34.2985 28.422C34.1585 28.142 33.9579 27.9273 33.6965 27.778C33.4445 27.6287 33.1319 27.554 32.7585 27.554C32.3665 27.554 32.0259 27.638 31.7365 27.806C31.4472 27.974 31.2232 28.212 31.0645 28.52C30.9059 28.8187 30.8265 29.178 30.8265 29.598C30.8265 30.018 30.9105 30.3867 31.0785 30.704C31.2465 31.0213 31.4845 31.2687 31.7925 31.446C32.1005 31.614 32.4552 31.698 32.8565 31.698C33.2019 31.698 33.5192 31.6373 33.8085 31.516C34.1072 31.3947 34.3592 31.2173 34.5645 30.984L35.5445 31.978C35.2179 32.3607 34.8212 32.65 34.3545 32.846C33.8879 33.042 33.3932 33.14 32.8705 33.14ZM40.027 35.94C39.3177 35.94 38.697 35.8093 38.165 35.548C37.633 35.296 37.2037 34.9367 36.877 34.47L37.885 33.462C38.1557 33.798 38.4637 34.05 38.809 34.218C39.1544 34.386 39.5697 34.47 40.055 34.47C40.6617 34.47 41.1424 34.3113 41.497 33.994C41.8517 33.686 42.029 33.2613 42.029 32.72V31.068L42.295 29.584L42.029 28.086V26.28H43.569V32.72C43.569 33.364 43.4197 33.924 43.121 34.4C42.8224 34.8853 42.407 35.2633 41.875 35.534C41.343 35.8047 40.727 35.94 40.027 35.94ZM39.957 32.86C39.3597 32.86 38.8184 32.7153 38.333 32.426C37.857 32.1273 37.479 31.7213 37.199 31.208C36.9284 30.6947 36.793 30.1207 36.793 29.486C36.793 28.8513 36.9284 28.282 37.199 27.778C37.479 27.274 37.857 26.8773 38.333 26.588C38.8184 26.2893 39.3597 26.14 39.957 26.14C40.489 26.14 40.9557 26.2473 41.357 26.462C41.7584 26.6767 42.071 26.9753 42.295 27.358C42.519 27.7313 42.631 28.17 42.631 28.674V30.326C42.631 30.8207 42.5144 31.2593 42.281 31.642C42.057 32.0247 41.7444 32.3233 41.343 32.538C40.9417 32.7527 40.4797 32.86 39.957 32.86ZM40.265 31.404C40.6384 31.404 40.965 31.3247 41.245 31.166C41.525 31.0073 41.7397 30.788 41.889 30.508C42.0477 30.2187 42.127 29.8827 42.127 29.5C42.127 29.1173 42.0477 28.786 41.889 28.506C41.7397 28.2167 41.525 27.9927 41.245 27.834C40.965 27.6753 40.6384 27.596 40.265 27.596C39.8917 27.596 39.5604 27.6753 39.271 27.834C38.991 27.9927 38.7717 28.2167 38.613 28.506C38.4544 28.786 38.375 29.1173 38.375 29.5C38.375 29.8733 38.4544 30.2047 38.613 30.494C38.7717 30.7833 38.991 31.0073 39.271 31.166C39.5604 31.3247 39.8917 31.404 40.265 31.404ZM45.2938 33V26.28H46.8338V33H45.2938ZM46.0638 25.048C45.8024 25.048 45.5831 24.9593 45.4058 24.782C45.2378 24.6047 45.1538 24.3853 45.1538 24.124C45.1538 23.8627 45.2378 23.6433 45.4058 23.466C45.5831 23.2887 45.8024 23.2 46.0638 23.2C46.3344 23.2 46.5538 23.2887 46.7218 23.466C46.8898 23.6433 46.9738 23.8627 46.9738 24.124C46.9738 24.3853 46.8898 24.6047 46.7218 24.782C46.5538 24.9593 46.3344 25.048 46.0638 25.048ZM50.759 33.14C50.3857 33.14 50.0264 33.0933 49.681 33C49.3357 32.8973 49.0184 32.7573 48.729 32.58C48.4397 32.3933 48.1877 32.1693 47.973 31.908L48.953 30.928C49.1864 31.1987 49.4524 31.404 49.751 31.544C50.059 31.6747 50.4044 31.74 50.787 31.74C51.1324 31.74 51.3937 31.6887 51.571 31.586C51.7484 31.4833 51.837 31.334 51.837 31.138C51.837 30.9327 51.753 30.774 51.585 30.662C51.417 30.55 51.1977 30.4567 50.927 30.382C50.6657 30.298 50.3857 30.214 50.087 30.13C49.7977 30.046 49.5177 29.934 49.247 29.794C48.9857 29.6447 48.771 29.444 48.603 29.192C48.435 28.94 48.351 28.6133 48.351 28.212C48.351 27.7827 48.449 27.414 48.645 27.106C48.8504 26.798 49.135 26.56 49.499 26.392C49.8724 26.224 50.3157 26.14 50.829 26.14C51.3704 26.14 51.8464 26.238 52.257 26.434C52.677 26.6207 53.027 26.9053 53.307 27.288L52.327 28.268C52.131 28.0253 51.907 27.8433 51.655 27.722C51.403 27.6007 51.1137 27.54 50.787 27.54C50.479 27.54 50.241 27.5867 50.073 27.68C49.905 27.7733 49.821 27.9087 49.821 28.086C49.821 28.2727 49.905 28.4173 50.073 28.52C50.241 28.6227 50.4557 28.7113 50.717 28.786C50.9877 28.8607 51.2677 28.9447 51.557 29.038C51.8557 29.122 52.1357 29.2433 52.397 29.402C52.6677 29.5513 52.887 29.7567 53.055 30.018C53.223 30.27 53.307 30.6013 53.307 31.012C53.307 31.6653 53.0784 32.1833 52.621 32.566C52.1637 32.9487 51.543 33.14 50.759 33.14ZM55.5987 33V23.48H57.1387V33H55.5987ZM53.9887 27.68V26.28H58.7487V27.68H53.9887ZM62.7983 33.14C62.1263 33.14 61.5196 32.9907 60.9783 32.692C60.4463 32.384 60.0216 31.964 59.7043 31.432C59.3963 30.9 59.2423 30.3027 59.2423 29.64C59.2423 28.9773 59.3963 28.3847 59.7043 27.862C60.0123 27.33 60.4276 26.91 60.9503 26.602C61.4823 26.294 62.0703 26.14 62.7143 26.14C63.3396 26.14 63.8903 26.2847 64.3663 26.574C64.8516 26.8633 65.2296 27.26 65.5003 27.764C65.7803 28.268 65.9203 28.842 65.9203 29.486C65.9203 29.598 65.9109 29.7147 65.8923 29.836C65.8829 29.948 65.8643 30.074 65.8363 30.214H60.3203V28.954H65.0383L64.4643 29.458C64.4456 29.0473 64.3663 28.702 64.2263 28.422C64.0863 28.142 63.8856 27.9273 63.6243 27.778C63.3723 27.6287 63.0596 27.554 62.6863 27.554C62.2943 27.554 61.9536 27.638 61.6643 27.806C61.3749 27.974 61.1509 28.212 60.9923 28.52C60.8336 28.8187 60.7543 29.178 60.7543 29.598C60.7543 30.018 60.8383 30.3867 61.0063 30.704C61.1743 31.0213 61.4123 31.2687 61.7203 31.446C62.0283 31.614 62.3829 31.698 62.7843 31.698C63.1296 31.698 63.4469 31.6373 63.7363 31.516C64.0349 31.3947 64.2869 31.2173 64.4923 30.984L65.4723 31.978C65.1456 32.3607 64.7489 32.65 64.2823 32.846C63.8156 33.042 63.3209 33.14 62.7983 33.14ZM67.1548 33V26.28H68.6948V33H67.1548ZM68.6948 29.262L68.1628 28.996C68.1628 28.1467 68.3494 27.4607 68.7228 26.938C69.1054 26.406 69.6794 26.14 70.4448 26.14C70.7808 26.14 71.0841 26.2007 71.3548 26.322C71.6254 26.4433 71.8774 26.6393 72.1108 26.91L71.1028 27.946C70.9814 27.8153 70.8461 27.722 70.6968 27.666C70.5474 27.61 70.3748 27.582 70.1788 27.582C69.7494 27.582 69.3948 27.7173 69.1148 27.988C68.8348 28.2587 68.6948 28.6833 68.6948 29.262ZM76.8288 33V25.398C76.8288 24.8847 76.9408 24.432 77.1648 24.04C77.3981 23.648 77.7154 23.34 78.1168 23.116C78.5274 22.892 78.9988 22.78 79.5308 22.78C79.9414 22.78 80.2914 22.85 80.5808 22.99C80.8701 23.13 81.1408 23.3307 81.3928 23.592L80.3988 24.586C80.2868 24.474 80.1654 24.3853 80.0348 24.32C79.9041 24.2547 79.7361 24.222 79.5308 24.222C79.1574 24.222 78.8681 24.3247 78.6628 24.53C78.4668 24.726 78.3688 25.0107 78.3688 25.384V33H76.8288ZM75.2188 27.68V26.28H80.3988V27.68H75.2188ZM84.2895 33.14C83.6361 33.14 83.0435 32.986 82.5115 32.678C81.9795 32.3607 81.5548 31.936 81.2375 31.404C80.9295 30.872 80.7755 30.2793 80.7755 29.626C80.7755 28.9727 80.9295 28.3847 81.2375 27.862C81.5548 27.3393 81.9795 26.924 82.5115 26.616C83.0435 26.2987 83.6361 26.14 84.2895 26.14C84.9521 26.14 85.5495 26.294 86.0815 26.602C86.6135 26.91 87.0335 27.33 87.3415 27.862C87.6588 28.3847 87.8175 28.9727 87.8175 29.626C87.8175 30.2793 87.6588 30.872 87.3415 31.404C87.0335 31.936 86.6135 32.3607 86.0815 32.678C85.5495 32.986 84.9521 33.14 84.2895 33.14ZM84.2895 31.656C84.6721 31.656 85.0081 31.572 85.2975 31.404C85.5961 31.2267 85.8248 30.984 85.9835 30.676C86.1515 30.368 86.2355 30.018 86.2355 29.626C86.2355 29.234 86.1515 28.8887 85.9835 28.59C85.8155 28.2913 85.5868 28.058 85.2975 27.89C85.0081 27.7127 84.6721 27.624 84.2895 27.624C83.9161 27.624 83.5801 27.7127 83.2815 27.89C82.9921 28.058 82.7635 28.2913 82.5955 28.59C82.4368 28.8887 82.3575 29.234 82.3575 29.626C82.3575 30.018 82.4368 30.368 82.5955 30.676C82.7635 30.984 82.9921 31.2267 83.2815 31.404C83.5801 31.572 83.9161 31.656 84.2895 31.656ZM89.0981 33V26.28H90.6381V33H89.0981ZM90.6381 29.262L90.1061 28.996C90.1061 28.1467 90.2928 27.4607 90.6661 26.938C91.0488 26.406 91.6228 26.14 92.3881 26.14C92.7241 26.14 93.0275 26.2007 93.2981 26.322C93.5688 26.4433 93.8208 26.6393 94.0541 26.91L93.0461 27.946C92.9248 27.8153 92.7895 27.722 92.6401 27.666C92.4908 27.61 92.3181 27.582 92.1221 27.582C91.6928 27.582 91.3381 27.7173 91.0581 27.988C90.7781 28.2587 90.6381 28.6833 90.6381 29.262ZM98.7721 33V25.398C98.7721 24.8847 98.8841 24.432 99.1081 24.04C99.3415 23.648 99.6588 23.34 100.06 23.116C100.471 22.892 100.942 22.78 101.474 22.78C101.885 22.78 102.235 22.85 102.524 22.99C102.813 23.13 103.084 23.3307 103.336 23.592L102.342 24.586C102.23 24.474 102.109 24.3853 101.978 24.32C101.847 24.2547 101.679 24.222 101.474 24.222C101.101 24.222 100.811 24.3247 100.606 24.53C100.41 24.726 100.312 25.0107 100.312 25.384V33H98.7721ZM97.1621 27.68V26.28H102.342V27.68H97.1621ZM103.249 33V26.28H104.789V33H103.249ZM104.789 29.262L104.257 28.996C104.257 28.1467 104.443 27.4607 104.817 26.938C105.199 26.406 105.773 26.14 106.539 26.14C106.875 26.14 107.178 26.2007 107.449 26.322C107.719 26.4433 107.971 26.6393 108.205 26.91L107.197 27.946C107.075 27.8153 106.94 27.722 106.791 27.666C106.641 27.61 106.469 27.582 106.273 27.582C105.843 27.582 105.489 27.7173 105.209 27.988C104.929 28.2587 104.789 28.6833 104.789 29.262ZM111.867 33.14C111.195 33.14 110.588 32.9907 110.047 32.692C109.515 32.384 109.09 31.964 108.773 31.432C108.465 30.9 108.311 30.3027 108.311 29.64C108.311 28.9773 108.465 28.3847 108.773 27.862C109.081 27.33 109.496 26.91 110.019 26.602C110.551 26.294 111.139 26.14 111.783 26.14C112.408 26.14 112.959 26.2847 113.435 26.574C113.92 26.8633 114.298 27.26 114.569 27.764C114.849 28.268 114.989 28.842 114.989 29.486C114.989 29.598 114.979 29.7147 114.961 29.836C114.951 29.948 114.933 30.074 114.905 30.214H109.389V28.954H114.107L113.533 29.458C113.514 29.0473 113.435 28.702 113.295 28.422C113.155 28.142 112.954 27.9273 112.693 27.778C112.441 27.6287 112.128 27.554 111.755 27.554C111.363 27.554 111.022 27.638 110.733 27.806C110.443 27.974 110.219 28.212 110.061 28.52C109.902 28.8187 109.823 29.178 109.823 29.598C109.823 30.018 109.907 30.3867 110.075 30.704C110.243 31.0213 110.481 31.2687 110.789 31.446C111.097 31.614 111.451 31.698 111.853 31.698C112.198 31.698 112.515 31.6373 112.805 31.516C113.103 31.3947 113.355 31.2173 113.561 30.984L114.541 31.978C114.214 32.3607 113.817 32.65 113.351 32.846C112.884 33.042 112.389 33.14 111.867 33.14ZM119.345 33.14C118.673 33.14 118.066 32.9907 117.525 32.692C116.993 32.384 116.568 31.964 116.251 31.432C115.943 30.9 115.789 30.3027 115.789 29.64C115.789 28.9773 115.943 28.3847 116.251 27.862C116.559 27.33 116.974 26.91 117.497 26.602C118.029 26.294 118.617 26.14 119.261 26.14C119.886 26.14 120.437 26.2847 120.913 26.574C121.398 26.8633 121.776 27.26 122.047 27.764C122.327 28.268 122.467 28.842 122.467 29.486C122.467 29.598 122.458 29.7147 122.439 29.836C122.43 29.948 122.411 30.074 122.383 30.214H116.867V28.954H121.585L121.011 29.458C120.992 29.0473 120.913 28.702 120.773 28.422C120.633 28.142 120.432 27.9273 120.171 27.778C119.919 27.6287 119.606 27.554 119.233 27.554C118.841 27.554 118.5 27.638 118.211 27.806C117.922 27.974 117.698 28.212 117.539 28.52C117.38 28.8187 117.301 29.178 117.301 29.598C117.301 30.018 117.385 30.3867 117.553 30.704C117.721 31.0213 117.959 31.2687 118.267 31.446C118.575 31.614 118.93 31.698 119.331 31.698C119.676 31.698 119.994 31.6373 120.283 31.516C120.582 31.3947 120.834 31.2173 121.039 30.984L122.019 31.978C121.692 32.3607 121.296 32.65 120.829 32.846C120.362 33.042 119.868 33.14 119.345 33.14Z" fill="#67C9CB"/>
</svg>
