<svg width="650" height="444" viewBox="0 0 650 444" fill="none" xmlns="http://www.w3.org/2000/svg">
<g filter="url(#filter0_d_44_4090)">
<path d="M603 26.5H49C44.8579 26.5 41.5 29.8579 41.5 34V382C41.5 386.142 44.8579 389.5 49 389.5H603C607.142 389.5 610.5 386.142 610.5 382V34C610.5 29.8579 607.142 26.5 603 26.5Z" fill="#F7F9FC" stroke="white"/>
<path d="M78.06 59.8C78.06 57.66 76.68 56.58 74.22 56.08L72.1 55.66C70.76 55.38 69.58 54.92 69.58 53.54C69.58 52.3 70.6 51.2 72.46 51.2C74.26 51.2 75.5 52.4 75.62 54.12H77.86C77.68 51.26 75.42 49.44 72.44 49.44C69.46 49.44 67.34 51.26 67.34 53.68C67.34 56.12 69.18 57.12 71.2 57.54L73.28 57.94C74.94 58.3 75.72 58.88 75.72 60.1C75.72 61.58 74.36 62.44 72.54 62.44C70.34 62.44 69.18 61.26 69.08 59.44H66.84C67.02 62.3 69.12 64.2 72.58 64.2C76.06 64.2 78.06 62.3 78.06 59.8ZM86.4255 63.82V62.04C86.0055 62.24 85.6055 62.32 85.1255 62.32C84.0255 62.32 83.3255 61.8 83.3255 60.34V55.12H86.5255V53.4H83.3255V50.26H81.3055V53.4H78.9855V55.12H81.3055V60.8C81.3055 63.14 82.6655 64.2 84.6255 64.2C85.2855 64.2 85.8255 64.1 86.4255 63.82ZM94.8919 64H96.5719V57.2C96.5719 54.68 95.0519 53.2 92.4319 53.2C90.0319 53.2 88.2319 54.86 88.1519 57.16H89.9919C90.0119 55.64 90.9519 54.8 92.4319 54.8C93.8319 54.8 94.6519 55.66 94.6519 57.18V57.96C93.8719 57.88 93.3119 57.84 92.6719 57.84C89.5119 57.84 87.8519 58.92 87.8519 61C87.8519 62.94 89.2919 64.2 91.4919 64.2C93.0719 64.2 94.2519 63.52 94.8919 62.36V64ZM89.7919 60.94C89.7919 59.7 90.7719 59.1 92.7919 59.1C93.4119 59.1 94.0119 59.14 94.6519 59.22V60.08C94.6519 61.72 93.5719 62.76 91.8919 62.76C90.5919 62.76 89.7919 62.04 89.7919 60.94ZM105.136 63.82V62.04C104.716 62.24 104.316 62.32 103.836 62.32C102.736 62.32 102.036 61.8 102.036 60.34V55.12H105.236V53.4H102.036V50.26H100.016V53.4H97.6964V55.12H100.016V60.8C100.016 63.14 101.376 64.2 103.336 64.2C103.996 64.2 104.536 64.1 105.136 63.82ZM109.783 50.94C109.783 50.16 109.183 49.6 108.323 49.6C107.463 49.6 106.843 50.16 106.843 50.94C106.843 51.7 107.463 52.28 108.323 52.28C109.183 52.28 109.783 51.7 109.783 50.94ZM109.343 64V53.4H107.323V64H109.343ZM120.505 60.84C120.505 59.32 119.505 58.4 117.425 58.02L115.625 57.68C114.385 57.44 113.785 57.06 113.785 56.22C113.785 55.32 114.605 54.7 115.925 54.7C117.365 54.7 118.305 55.44 118.425 56.74H120.345C120.185 54.56 118.465 53.18 115.925 53.18C113.565 53.18 111.845 54.5 111.845 56.36C111.845 58.02 113.005 58.98 114.905 59.34L116.605 59.66C117.905 59.9 118.465 60.3 118.465 61.12C118.465 62.06 117.665 62.68 116.045 62.68C114.505 62.68 113.425 61.92 113.345 60.54H111.425C111.625 62.86 113.445 64.2 116.085 64.2C118.945 64.2 120.505 62.82 120.505 60.84ZM128.574 63.82V62.04C128.154 62.24 127.754 62.32 127.274 62.32C126.174 62.32 125.474 61.8 125.474 60.34V55.12H128.674V53.4H125.474V50.26H123.454V53.4H121.134V55.12H123.454V60.8C123.454 63.14 124.814 64.2 126.774 64.2C127.434 64.2 127.974 64.1 128.574 63.82ZM133.22 50.94C133.22 50.16 132.62 49.6 131.76 49.6C130.9 49.6 130.28 50.16 130.28 50.94C130.28 51.7 130.9 52.28 131.76 52.28C132.62 52.28 133.22 51.7 133.22 50.94ZM132.78 64V53.4H130.76V64H132.78ZM144.783 59.7H142.663C142.443 61.2 141.523 62.42 139.903 62.42C138.183 62.42 137.023 60.88 137.023 58.7C137.023 56.5 138.183 55 139.903 55C141.503 55 142.463 56.18 142.663 57.7H144.783C144.423 55.04 142.563 53.2 139.883 53.2C137.003 53.2 134.943 55.52 134.943 58.7C134.943 61.86 137.003 64.22 139.883 64.22C142.563 64.22 144.443 62.36 144.783 59.7Z" fill="#2E3A59"/>
<path d="M71.392 106.256C74.192 106.256 75.936 104.832 75.936 102.336C75.936 99.84 74.192 98.512 71.392 98.512H67.136V110H69.568V106.256H71.392ZM71.376 100.56C72.736 100.56 73.52 101.216 73.52 102.352C73.52 103.488 72.736 104.208 71.376 104.208H69.568V100.56H71.376ZM79.6985 105.856C79.6985 103.968 80.9785 103.504 82.8665 103.664V101.424C81.4425 101.28 80.1465 102.016 79.5225 103.104V101.456H77.4905V110H79.6985V105.856ZM92.1349 105.728C92.1349 103.232 90.2629 101.296 87.7989 101.296C85.3189 101.296 83.4629 103.232 83.4629 105.728C83.4629 108.208 85.3189 110.16 87.7989 110.16C90.2629 110.16 92.1349 108.208 92.1349 105.728ZM85.7509 105.728C85.7509 104.144 86.6949 103.28 87.7989 103.28C88.9029 103.28 89.8309 104.144 89.8309 105.728C89.8309 107.312 88.9029 108.192 87.7989 108.192C86.6789 108.192 85.7509 107.312 85.7509 105.728ZM101.219 109.6V101.456H99.1869V102.624C98.5629 101.744 97.6989 101.296 96.5469 101.296C94.4189 101.296 92.9629 103.024 92.9629 105.488C92.9629 107.872 94.4989 109.68 96.6269 109.68C97.6669 109.68 98.5469 109.184 99.0109 108.384V109.632C99.0109 110.864 98.3869 111.52 97.1389 111.52C95.9869 111.52 95.3949 111.024 95.3469 110.032H93.2189C93.2829 112 94.8509 113.248 97.1549 113.248C99.7149 113.248 101.219 111.856 101.219 109.6ZM95.1869 105.488C95.1869 104.08 95.9229 103.216 97.0589 103.216C98.2269 103.216 98.9949 104.112 98.9949 105.504C98.9949 106.832 98.2429 107.76 97.0589 107.76C95.9069 107.76 95.1869 106.88 95.1869 105.488ZM105.277 105.856C105.277 103.968 106.557 103.504 108.445 103.664V101.424C107.021 101.28 105.725 102.016 105.101 103.104V101.456H103.069V110H105.277V105.856ZM117.345 107.104H115.153C114.897 107.952 114.225 108.432 113.249 108.432C112.113 108.432 111.361 107.584 111.345 106.272H117.377C117.777 103.488 115.985 101.296 113.281 101.296C110.817 101.296 109.041 103.152 109.041 105.696C109.041 108.384 110.769 110.144 113.313 110.144C115.377 110.144 116.865 109.024 117.345 107.104ZM113.233 102.928C114.273 102.928 114.961 103.68 115.009 104.864H111.345C111.441 103.728 112.177 102.928 113.233 102.928ZM125.971 107.264C125.971 106.016 125.139 105.264 123.459 104.944L121.827 104.64C121.059 104.512 120.707 104.272 120.707 103.824C120.707 103.296 121.235 102.912 122.067 102.912C122.995 102.912 123.635 103.424 123.715 104.272H125.827C125.683 102.432 124.211 101.28 122.051 101.28C120.051 101.28 118.579 102.4 118.579 103.984C118.579 105.344 119.523 106.16 121.027 106.432L122.579 106.72C123.379 106.88 123.747 107.12 123.747 107.584C123.747 108.16 123.187 108.528 122.147 108.528C121.075 108.528 120.371 107.984 120.339 107.088H118.227C118.387 109.008 119.907 110.16 122.195 110.16C124.563 110.16 125.971 109.008 125.971 107.264ZM134.534 107.264C134.534 106.016 133.702 105.264 132.022 104.944L130.39 104.64C129.622 104.512 129.27 104.272 129.27 103.824C129.27 103.296 129.798 102.912 130.63 102.912C131.558 102.912 132.198 103.424 132.278 104.272H134.39C134.246 102.432 132.774 101.28 130.614 101.28C128.614 101.28 127.142 102.4 127.142 103.984C127.142 105.344 128.086 106.16 129.59 106.432L131.142 106.72C131.942 106.88 132.31 107.12 132.31 107.584C132.31 108.16 131.75 108.528 130.71 108.528C129.638 108.528 128.934 107.984 128.902 107.088H126.79C126.95 109.008 128.47 110.16 130.758 110.16C133.126 110.16 134.534 109.008 134.534 107.264ZM147.331 107.264C147.331 106.016 146.499 105.264 144.819 104.944L143.187 104.64C142.419 104.512 142.067 104.272 142.067 103.824C142.067 103.296 142.595 102.912 143.427 102.912C144.355 102.912 144.995 103.424 145.075 104.272H147.187C147.043 102.432 145.571 101.28 143.411 101.28C141.411 101.28 139.939 102.4 139.939 103.984C139.939 105.344 140.883 106.16 142.387 106.432L143.939 106.72C144.739 106.88 145.107 107.12 145.107 107.584C145.107 108.16 144.547 108.528 143.507 108.528C142.435 108.528 141.731 107.984 141.699 107.088H139.587C139.747 109.008 141.267 110.16 143.555 110.16C145.923 110.16 147.331 109.008 147.331 107.264ZM156.501 106.352H154.165C154.053 107.36 153.397 108.192 152.357 108.192C151.237 108.192 150.469 107.168 150.469 105.728C150.469 104.24 151.237 103.28 152.357 103.28C153.413 103.28 154.053 104.08 154.165 105.104H156.501C156.245 102.832 154.613 101.296 152.341 101.296C149.941 101.296 148.197 103.168 148.197 105.728C148.197 108.256 149.941 110.16 152.341 110.16C154.581 110.16 156.245 108.624 156.501 106.352ZM166.01 105.728C166.01 103.232 164.138 101.296 161.674 101.296C159.194 101.296 157.338 103.232 157.338 105.728C157.338 108.208 159.194 110.16 161.674 110.16C164.138 110.16 166.01 108.208 166.01 105.728ZM159.626 105.728C159.626 104.144 160.57 103.28 161.674 103.28C162.778 103.28 163.706 104.144 163.706 105.728C163.706 107.312 162.778 108.192 161.674 108.192C160.554 108.192 159.626 107.312 159.626 105.728ZM169.558 105.856C169.558 103.968 170.838 103.504 172.726 103.664V101.424C171.302 101.28 170.006 102.016 169.382 103.104V101.456H167.35V110H169.558V105.856ZM181.626 107.104H179.434C179.178 107.952 178.506 108.432 177.53 108.432C176.394 108.432 175.642 107.584 175.626 106.272H181.658C182.058 103.488 180.266 101.296 177.562 101.296C175.098 101.296 173.322 103.152 173.322 105.696C173.322 108.384 175.05 110.144 177.594 110.144C179.658 110.144 181.146 109.024 181.626 107.104ZM177.514 102.928C178.554 102.928 179.242 103.68 179.29 104.864H175.626C175.722 103.728 176.458 102.928 177.514 102.928Z" fill="#2E3A59"/>
<path d="M385 167H349V389H385V167Z" fill="url(#paint0_linear_44_4090)"/>
<path d="M71.296 354.6H69.968V362.056C69.968 363.48 69.248 364.024 68.304 364.024C67.76 364.024 67.248 363.88 66.704 363.496L66.032 364.488C66.752 365 67.52 365.192 68.32 365.192C70.176 365.192 71.296 364.072 71.296 362.072V354.6ZM76.2879 364.168C75.3279 364.168 74.6879 363.672 74.6879 362.824C74.6879 362.104 75.0879 361.608 76.0959 361.608H78.8479V361.96C78.8479 363.32 77.6319 364.168 76.2879 364.168ZM78.8959 365H80.1119V360.248C80.1119 358.264 78.9919 357.048 77.0239 357.048C75.4879 357.048 74.3359 357.816 73.7279 359.288L74.8799 359.624C75.3119 358.68 75.9519 358.12 77.0239 358.12C78.0959 358.12 78.8479 358.792 78.8479 360.152V360.344C78.8479 360.584 78.7679 360.68 78.4799 360.68H75.9359C74.3679 360.68 73.4239 361.56 73.4239 362.856C73.4239 364.28 74.5439 365.192 76.1119 365.192C77.1999 365.192 78.2879 364.744 78.8959 363.688V365ZM83.8573 360.536C83.8573 359.064 84.7053 358.2 86.0973 358.2C87.4893 358.2 88.1453 359.016 88.1453 360.424V365H89.4253V360.376C89.4253 358.472 88.5773 357.048 86.3533 357.048C85.2653 357.048 84.3053 357.576 83.7933 358.664V357.24H82.5773V365H83.8573V360.536Z" fill="#2E3A59"/>
<path d="M112.661 360.488V359.368H108.741V355.736H113.669V354.6H107.429V365H108.741V360.488H112.661ZM118.406 358.104C119.59 358.104 120.566 358.904 120.662 360.456H116.006C116.166 359 117.142 358.104 118.406 358.104ZM121.798 363.352L120.79 362.872C120.198 363.736 119.526 364.12 118.502 364.12C116.966 364.12 116.054 363.096 115.99 361.4H121.894C122.198 358.936 120.694 357.048 118.406 357.048C116.182 357.048 114.662 358.84 114.662 361.128C114.662 363.416 116.022 365.192 118.502 365.192C120.022 365.192 121.11 364.52 121.798 363.352ZM127.907 365.192C130.035 365.192 131.443 363.4 131.443 361.128C131.443 358.856 130.035 357.048 127.907 357.048C126.707 357.048 125.747 357.64 125.219 358.76V354.12H123.955V365H125.187V363.544C125.731 364.616 126.691 365.192 127.907 365.192ZM127.683 364.104C126.227 364.104 125.235 362.968 125.235 361.128C125.235 359.288 126.227 358.136 127.683 358.136C129.107 358.136 130.115 359.288 130.115 361.128C130.115 362.968 129.139 364.104 127.683 364.104Z" fill="#2E3A59"/>
<path d="M153.658 362.472H154.762L157.882 356.296V365H159.13V354.6H157.61L154.218 361.24L150.81 354.6H149.338V365H150.522V356.408L153.658 362.472ZM164.262 364.168C163.302 364.168 162.662 363.672 162.662 362.824C162.662 362.104 163.062 361.608 164.07 361.608H166.822V361.96C166.822 363.32 165.606 364.168 164.262 364.168ZM166.87 365H168.086V360.248C168.086 358.264 166.966 357.048 164.998 357.048C163.462 357.048 162.31 357.816 161.702 359.288L162.854 359.624C163.286 358.68 163.926 358.12 164.998 358.12C166.07 358.12 166.822 358.792 166.822 360.152V360.344C166.822 360.584 166.742 360.68 166.454 360.68H163.91C162.342 360.68 161.398 361.56 161.398 362.856C161.398 364.28 162.518 365.192 164.086 365.192C165.174 365.192 166.262 364.744 166.87 363.688V365ZM171.832 360.616C171.832 358.824 172.808 358.328 173.928 358.328C174.184 358.328 174.44 358.36 174.728 358.44L174.952 357.24C174.744 357.112 174.424 357.048 174.056 357.048C173.016 357.048 172.168 357.608 171.736 358.728V357.24H170.552V365H171.832V360.616Z" fill="#2E3A59"/>
<path d="M197.239 361.08H193.719L195.479 355.912L197.239 361.08ZM198.583 365H199.959L196.247 354.6H194.775L191.063 365H192.375L193.351 362.12H197.607L198.583 365ZM205.314 364.104C203.858 364.104 202.866 362.968 202.866 361.128C202.866 359.288 203.858 358.136 205.314 358.136C206.77 358.136 207.746 359.288 207.746 361.128C207.746 362.968 206.77 364.104 205.314 364.104ZM205.538 365.192C207.666 365.192 209.074 363.448 209.074 361.128C209.074 358.808 207.666 357.048 205.538 357.048C204.306 357.048 203.346 357.672 202.818 358.824V357.24H201.586V368.2H202.85V363.608C203.394 364.648 204.338 365.192 205.538 365.192ZM212.444 360.616C212.444 358.824 213.42 358.328 214.54 358.328C214.796 358.328 215.052 358.36 215.34 358.44L215.564 357.24C215.356 357.112 215.036 357.048 214.668 357.048C213.628 357.048 212.78 357.608 212.348 358.728V357.24H211.164V365H212.444V360.616Z" fill="#2E3A59"/>
<path d="M237.476 362.472H238.58L241.7 356.296V365H242.948V354.6H241.428L238.036 361.24L234.628 354.6H233.156V365H234.34V356.408L237.476 362.472ZM248.08 364.168C247.12 364.168 246.48 363.672 246.48 362.824C246.48 362.104 246.88 361.608 247.888 361.608H250.64V361.96C250.64 363.32 249.424 364.168 248.08 364.168ZM250.688 365H251.904V360.248C251.904 358.264 250.784 357.048 248.816 357.048C247.28 357.048 246.128 357.816 245.52 359.288L246.672 359.624C247.104 358.68 247.744 358.12 248.816 358.12C249.888 358.12 250.64 358.792 250.64 360.152V360.344C250.64 360.584 250.56 360.68 250.272 360.68H247.728C246.16 360.68 245.216 361.56 245.216 362.856C245.216 364.28 246.336 365.192 247.904 365.192C248.992 365.192 250.08 364.744 250.688 363.688V365ZM254.963 368.392C256.147 368.392 256.851 367.832 257.443 366.232L260.723 357.24H259.475L257.123 363.896L254.691 357.24H253.347L256.307 365H256.739L256.355 366.072C256.019 367.016 255.587 367.272 254.963 367.272C254.563 367.272 254.195 367.128 253.875 366.872L253.283 367.816C253.779 368.216 254.403 368.392 254.963 368.392Z" fill="#2E3A59"/>
<path d="M281.841 354.6H280.513V362.056C280.513 363.48 279.793 364.024 278.849 364.024C278.305 364.024 277.793 363.88 277.249 363.496L276.577 364.488C277.297 365 278.065 365.192 278.865 365.192C280.721 365.192 281.841 364.072 281.841 362.072V354.6ZM289.905 365H291.121V357.24H289.841V361.704C289.841 363.192 289.025 364.056 287.649 364.056C286.257 364.056 285.633 363.24 285.633 361.832V357.24H284.353V361.864C284.353 363.768 285.169 365.192 287.393 365.192C288.465 365.192 289.409 364.68 289.905 363.576V365ZM294.996 360.536C294.996 359.064 295.844 358.2 297.236 358.2C298.628 358.2 299.284 359.016 299.284 360.424V365H300.564V360.376C300.564 358.472 299.716 357.048 297.492 357.048C296.404 357.048 295.444 357.576 294.932 358.664V357.24H293.716V365H294.996V360.536Z" fill="#2E3A59"/>
<path d="M322.751 354.6H321.423V362.056C321.423 363.48 320.703 364.024 319.759 364.024C319.215 364.024 318.703 363.88 318.159 363.496L317.487 364.488C318.207 365 318.975 365.192 319.775 365.192C321.631 365.192 322.751 364.072 322.751 362.072V354.6ZM330.814 365H332.03V357.24H330.75V361.704C330.75 363.192 329.934 364.056 328.558 364.056C327.166 364.056 326.542 363.24 326.542 361.832V357.24H325.262V361.864C325.262 363.768 326.078 365.192 328.302 365.192C329.374 365.192 330.318 364.68 330.814 363.576V365ZM335.906 354.12H334.626V365H335.906V354.12Z" fill="#2E3A59"/>
<path d="M358.876 361.08H355.356L357.116 355.912L358.876 361.08ZM360.22 365H361.596L357.884 354.6H356.412L352.7 365H354.012L354.988 362.12H359.244L360.22 365ZM368.614 365H369.83V357.24H368.55V361.704C368.55 363.192 367.734 364.056 366.358 364.056C364.966 364.056 364.342 363.24 364.342 361.832V357.24H363.062V361.864C363.062 363.768 363.878 365.192 366.102 365.192C367.174 365.192 368.118 364.68 368.614 363.576V365ZM375.561 358.024C376.761 358.024 377.561 358.728 377.561 359.72C377.561 360.76 376.857 361.4 375.561 361.4C374.345 361.4 373.545 360.696 373.545 359.72C373.545 358.664 374.249 358.024 375.561 358.024ZM379.593 365.704C379.593 364.52 378.713 363.816 377.129 363.816H374.057C373.401 363.816 373.113 363.544 373.113 363.112C373.113 362.696 373.417 362.376 374.057 362.376H375.545H375.561C377.481 362.376 378.825 361.416 378.825 359.8C378.825 359.16 378.601 358.632 378.169 358.216L379.977 358.328V357.24H376.873C376.473 357.112 376.041 357.048 375.561 357.048C373.657 357.048 372.297 358.024 372.297 359.72C372.297 360.648 372.713 361.368 373.417 361.816C372.457 362.008 371.961 362.616 371.961 363.336C371.961 363.976 372.345 364.536 373.017 364.792L372.377 364.904C372.009 365.192 371.769 365.608 371.769 366.104C371.769 367.304 372.889 368.392 375.497 368.392C378.297 368.392 379.593 367.112 379.593 365.704ZM375.513 367.416C373.737 367.416 373.049 366.776 373.049 365.944C373.049 365.592 373.193 365.208 373.481 364.92C373.641 364.952 373.817 364.968 374.009 364.968H377.001C377.929 364.968 378.361 365.224 378.361 365.896C378.361 366.76 377.369 367.416 375.513 367.416Z" fill="white"/>
<path d="M400.121 365.176C402.361 365.176 403.801 363.992 403.801 362.296C403.801 358.52 397.641 359.928 397.641 357.256C397.641 356.232 398.409 355.544 399.817 355.544C401.017 355.544 401.881 356.152 402.505 357.208L403.673 356.712C402.953 355.32 401.641 354.408 399.817 354.408C397.593 354.408 396.297 355.72 396.297 357.32C396.297 361.096 402.457 359.736 402.457 362.328C402.457 363.368 401.625 364.056 400.121 364.056C398.873 364.056 397.753 363.544 397.017 362.472L395.913 363.064C396.713 364.408 398.249 365.176 400.121 365.176ZM409.16 358.104C410.344 358.104 411.32 358.904 411.416 360.456H406.76C406.92 359 407.896 358.104 409.16 358.104ZM412.552 363.352L411.544 362.872C410.952 363.736 410.28 364.12 409.256 364.12C407.72 364.12 406.808 363.096 406.744 361.4H412.648C412.952 358.936 411.448 357.048 409.16 357.048C406.936 357.048 405.416 358.84 405.416 361.128C405.416 363.416 406.776 365.192 409.256 365.192C410.776 365.192 411.864 364.52 412.552 363.352ZM418.437 364.104C416.981 364.104 415.989 362.968 415.989 361.128C415.989 359.288 416.981 358.136 418.437 358.136C419.893 358.136 420.869 359.288 420.869 361.128C420.869 362.968 419.893 364.104 418.437 364.104ZM418.661 365.192C420.789 365.192 422.197 363.448 422.197 361.128C422.197 358.808 420.789 357.048 418.661 357.048C417.429 357.048 416.469 357.672 415.941 358.824V357.24H414.709V368.2H415.973V363.608C416.517 364.648 417.461 365.192 418.661 365.192Z" fill="#2E3A59"/>
<path d="M444.006 365.192C446.982 365.192 449.062 362.776 449.062 359.8C449.062 356.824 446.982 354.408 444.006 354.408C441.046 354.408 438.966 356.824 438.966 359.8C438.966 362.776 441.046 365.192 444.006 365.192ZM444.006 364.008C442.022 364.008 440.342 362.408 440.342 359.8C440.342 357.208 442.022 355.608 444.006 355.608C446.006 355.608 447.686 357.208 447.686 359.8C447.686 362.408 446.006 364.008 444.006 364.008ZM454.414 358.136C455.406 358.136 456.03 358.6 456.606 359.592L457.63 359.064C456.99 357.832 455.934 357.048 454.414 357.048C452.206 357.048 450.622 358.808 450.622 361.128C450.622 363.416 452.03 365.192 454.398 365.192C455.966 365.192 457.086 364.408 457.71 363.272L456.702 362.792C456.126 363.672 455.486 364.104 454.446 364.104C452.91 364.104 451.95 363 451.95 361.128C451.95 359.224 453.022 358.136 454.414 358.136ZM463.655 358.296V357.24H461.079V355.368H460.135L459.863 357.24H458.407V358.296H459.799V362.616C459.799 364.344 460.759 365.192 462.119 365.192C462.887 365.192 463.527 364.968 464.183 364.44L463.623 363.528C463.143 363.896 462.759 364.072 462.263 364.072C461.559 364.072 461.079 363.608 461.079 362.616V358.296H463.655Z" fill="#2E3A59"/>
<path d="M488.011 365H489.515V354.6H488.347V363.368L483.115 354.6H481.611V365H482.763V356.216L488.011 365ZM495.572 365.192C497.828 365.192 499.332 363.4 499.332 361.128C499.332 358.84 497.828 357.048 495.572 357.048C493.316 357.048 491.812 358.84 491.812 361.128C491.812 363.4 493.316 365.192 495.572 365.192ZM495.572 364.088C494.164 364.088 493.124 362.984 493.124 361.128C493.124 359.272 494.164 358.152 495.572 358.152C496.964 358.152 498.004 359.272 498.004 361.128C498.004 362.984 496.964 364.088 495.572 364.088ZM503.324 365H504.764L507.756 357.24H506.476L504.076 363.784L501.676 357.24H500.332L503.324 365Z" fill="#2E3A59"/>
<path d="M528.072 355.736C530.072 355.736 531.704 357.176 531.704 359.8C531.704 362.44 530.072 363.88 528.072 363.88H525.832V355.736H528.072ZM524.52 365H528.072C531.032 365 533.064 362.776 533.064 359.784C533.064 356.84 531.032 354.6 528.072 354.6H524.52V365ZM538.372 358.104C539.556 358.104 540.532 358.904 540.628 360.456H535.972C536.132 359 537.108 358.104 538.372 358.104ZM541.764 363.352L540.756 362.872C540.164 363.736 539.492 364.12 538.468 364.12C536.932 364.12 536.02 363.096 535.956 361.4H541.86C542.164 358.936 540.66 357.048 538.372 357.048C536.148 357.048 534.628 358.84 534.628 361.128C534.628 363.416 535.988 365.192 538.468 365.192C539.988 365.192 541.076 364.52 541.764 363.352ZM547.201 358.136C548.193 358.136 548.817 358.6 549.393 359.592L550.417 359.064C549.777 357.832 548.721 357.048 547.201 357.048C544.993 357.048 543.409 358.808 543.409 361.128C543.409 363.416 544.817 365.192 547.185 365.192C548.753 365.192 549.873 364.408 550.497 363.272L549.489 362.792C548.913 363.672 548.273 364.104 547.233 364.104C545.697 364.104 544.737 363 544.737 361.128C544.737 359.224 545.809 358.136 547.201 358.136Z" fill="#2E3A59"/>
<path d="M67 277.98C67 277.98 141.763 279.966 210.436 244.612C376.363 159.192 373.491 280.909 451.9 258.849C516.984 240.538 586 189 586 189" stroke="#3366FF" stroke-width="2" stroke-linecap="round"/>
<path d="M67 278C67 278 155.31 213.137 218.357 212.98C262.985 212.868 295.726 273.428 338.391 260.999C382.321 248.202 379.993 196.59 424.143 184.494C460.029 174.662 483.043 204.454 519.807 200.955C566.606 196.502 586 168 586 168" stroke="#00D68F" stroke-width="2" stroke-linecap="round"/>
<path d="M556.356 112.545H550.66V108.177H555.764V107.137H550.66V103.137H556.244V102.097H549.46V113.585H556.356V112.545ZM558.526 113.585L561.07 109.969L563.646 113.585H564.926L561.854 109.297L564.734 105.153H563.518L561.134 108.561L558.75 105.153H557.454L560.366 109.265L557.262 113.585H558.526ZM571.316 113.585H572.292V108.097C572.292 106.145 571.124 104.993 569.172 104.993C567.268 104.993 565.94 106.273 565.908 108.113H566.916C566.948 106.689 567.796 105.889 569.172 105.889C570.452 105.889 571.22 106.705 571.22 108.129V108.833C570.484 108.769 570.02 108.737 569.476 108.737C566.932 108.737 565.62 109.601 565.62 111.249C565.62 112.769 566.74 113.745 568.484 113.745C569.812 113.745 570.836 113.105 571.316 112.049V113.585ZM566.692 111.217C566.692 110.049 567.604 109.489 569.54 109.489C570.1 109.489 570.644 109.521 571.22 109.569V110.321C571.22 111.905 570.212 112.929 568.66 112.929C567.46 112.929 566.692 112.241 566.692 111.217ZM575.705 108.641C575.705 107.089 576.761 105.969 578.057 105.969C579.417 105.969 580.153 106.881 580.153 108.481V113.585H581.273V108.641C581.273 107.089 582.313 105.969 583.609 105.969C584.985 105.969 585.721 106.881 585.721 108.481V113.585H586.825V108.113C586.825 106.145 585.737 104.993 583.993 104.993C582.633 104.993 581.561 105.761 581.033 106.913C580.665 105.681 579.721 104.993 578.425 104.993C577.209 104.993 576.169 105.649 575.641 106.689V105.153H574.585V113.585H575.705V108.641ZM595.436 111.233C595.436 110.017 594.684 109.329 593.004 109.009L591.74 108.769C590.556 108.545 589.98 108.177 589.98 107.313C589.98 106.465 590.748 105.841 591.98 105.841C593.308 105.841 594.172 106.513 594.284 107.713H595.324C595.196 106.033 593.916 104.993 591.98 104.993C590.188 104.993 588.892 105.985 588.892 107.393C588.892 108.689 589.82 109.409 591.34 109.697L592.556 109.937C593.804 110.177 594.316 110.561 594.316 111.393C594.316 112.273 593.628 112.897 592.092 112.897C590.716 112.897 589.724 112.225 589.628 110.945H588.572C588.732 112.737 590.14 113.745 592.108 113.745C594.316 113.745 595.436 112.673 595.436 111.233Z" fill="#2E3A59"/>
<path d="M539.652 110.751C541.384 110.751 542.788 109.153 542.788 107.182C542.788 105.211 541.384 103.614 539.652 103.614C537.92 103.614 536.516 105.211 536.516 107.182C536.516 109.153 537.92 110.751 539.652 110.751Z" fill="#00D68F"/>
<path d="M407.681 112.542H408.945L404.497 101.054H403.185L398.721 112.542H399.905L401.121 109.358H406.465L407.681 112.542ZM401.473 108.382L403.809 102.334L406.113 108.382H401.473ZM416.66 104.11H415.524L412.868 111.23L410.228 104.11H409.028L412.26 112.542H413.428L416.66 104.11ZM423.204 112.542H424.18V107.054C424.18 105.102 423.012 103.95 421.06 103.95C419.156 103.95 417.828 105.23 417.796 107.07H418.804C418.836 105.646 419.684 104.846 421.06 104.846C422.34 104.846 423.108 105.662 423.108 107.086V107.79C422.372 107.726 421.908 107.694 421.364 107.694C418.82 107.694 417.508 108.558 417.508 110.206C417.508 111.726 418.628 112.702 420.372 112.702C421.7 112.702 422.724 112.062 423.204 111.006V112.542ZM418.58 110.174C418.58 109.006 419.492 108.446 421.428 108.446C421.988 108.446 422.532 108.478 423.108 108.526V109.278C423.108 110.862 422.1 111.886 420.548 111.886C419.348 111.886 418.58 111.198 418.58 110.174ZM427.593 108.03C427.593 106.19 428.953 105.07 430.745 105.15V103.998C429.337 103.95 428.089 104.782 427.529 106.03V104.11H426.473V112.542H427.593V108.03ZM437.251 112.542H438.227V107.054C438.227 105.102 437.059 103.95 435.107 103.95C433.203 103.95 431.875 105.23 431.843 107.07H432.851C432.883 105.646 433.731 104.846 435.107 104.846C436.387 104.846 437.155 105.662 437.155 107.086V107.79C436.419 107.726 435.955 107.694 435.411 107.694C432.867 107.694 431.555 108.558 431.555 110.206C431.555 111.726 432.675 112.702 434.419 112.702C435.747 112.702 436.771 112.062 437.251 111.006V112.542ZM432.627 110.174C432.627 109.006 433.539 108.446 435.475 108.446C436.035 108.446 436.579 108.478 437.155 108.526V109.278C437.155 110.862 436.147 111.886 434.595 111.886C433.395 111.886 432.627 111.198 432.627 110.174ZM447.512 112.35V104.11H446.472V105.902C445.928 104.686 444.888 103.95 443.592 103.95C441.464 103.95 440.072 105.662 440.072 108.206C440.072 110.75 441.496 112.478 443.624 112.478C444.872 112.478 445.912 111.774 446.408 110.606V112.366C446.408 113.998 445.56 114.91 443.864 114.91C442.328 114.91 441.432 114.158 441.352 112.798H440.296C440.376 114.686 441.752 115.806 443.88 115.806C446.248 115.806 447.512 114.462 447.512 112.35ZM441.176 108.206C441.176 106.158 442.184 104.91 443.784 104.91C445.368 104.91 446.424 106.206 446.424 108.286C446.424 110.222 445.384 111.518 443.784 111.518C442.168 111.518 441.176 110.27 441.176 108.206ZM457.111 109.694H456.023C455.751 111.038 454.759 111.822 453.351 111.822C451.719 111.822 450.615 110.574 450.583 108.59H457.095C457.287 105.886 455.719 103.95 453.319 103.95C451.079 103.95 449.447 105.79 449.447 108.254C449.447 110.958 451.031 112.702 453.383 112.702C455.303 112.702 456.727 111.55 457.111 109.694ZM453.303 104.814C454.807 104.814 455.831 105.934 455.911 107.822H450.583C450.679 106.046 451.783 104.814 453.303 104.814ZM469.7 112.35V104.11H468.66V105.902C468.116 104.686 467.076 103.95 465.78 103.95C463.652 103.95 462.26 105.662 462.26 108.206C462.26 110.75 463.684 112.478 465.812 112.478C467.06 112.478 468.1 111.774 468.596 110.606V112.366C468.596 113.998 467.748 114.91 466.052 114.91C464.516 114.91 463.62 114.158 463.54 112.798H462.484C462.564 114.686 463.94 115.806 466.068 115.806C468.436 115.806 469.7 114.462 469.7 112.35ZM463.364 108.206C463.364 106.158 464.372 104.91 465.972 104.91C467.556 104.91 468.612 106.206 468.612 108.286C468.612 110.222 467.572 111.518 465.972 111.518C464.356 111.518 463.364 110.27 463.364 108.206ZM473.203 108.03C473.203 106.19 474.563 105.07 476.355 105.15V103.998C474.947 103.95 473.699 104.782 473.139 106.03V104.11H472.083V112.542H473.203V108.03ZM482.86 112.542H483.836V107.054C483.836 105.102 482.668 103.95 480.716 103.95C478.812 103.95 477.484 105.23 477.452 107.07H478.46C478.492 105.646 479.34 104.846 480.716 104.846C481.996 104.846 482.764 105.662 482.764 107.086V107.79C482.028 107.726 481.564 107.694 481.02 107.694C478.476 107.694 477.164 108.558 477.164 110.206C477.164 111.726 478.284 112.702 480.028 112.702C481.356 112.702 482.38 112.062 482.86 111.006V112.542ZM478.236 110.174C478.236 109.006 479.148 108.446 481.084 108.446C481.644 108.446 482.188 108.478 482.764 108.526V109.278C482.764 110.862 481.756 111.886 480.204 111.886C479.004 111.886 478.236 111.198 478.236 110.174ZM492.369 112.542H493.409V101.054H492.305V105.87C491.729 104.67 490.641 103.95 489.377 103.95C487.121 103.95 485.681 105.726 485.681 108.318C485.681 110.91 487.105 112.702 489.377 112.702C490.689 112.702 491.793 111.998 492.369 110.766V112.542ZM486.801 108.318C486.801 106.174 487.905 104.926 489.553 104.926C491.137 104.926 492.273 106.158 492.321 108.286C492.369 110.398 491.185 111.726 489.553 111.726C487.905 111.726 486.801 110.462 486.801 108.318ZM502.986 109.694H501.898C501.626 111.038 500.634 111.822 499.226 111.822C497.594 111.822 496.49 110.574 496.458 108.59H502.97C503.162 105.886 501.594 103.95 499.194 103.95C496.954 103.95 495.322 105.79 495.322 108.254C495.322 110.958 496.906 112.702 499.258 112.702C501.178 112.702 502.602 111.55 502.986 109.694ZM499.178 104.814C500.682 104.814 501.706 105.934 501.786 107.822H496.458C496.554 106.046 497.658 104.814 499.178 104.814Z" fill="#2E3A59"/>
<path d="M389.664 109.708C391.396 109.708 392.8 108.11 392.8 106.139C392.8 104.169 391.396 102.571 389.664 102.571C387.932 102.571 386.528 104.169 386.528 106.139C386.528 108.11 387.932 109.708 389.664 109.708Z" fill="#3366FF"/>
<path d="M377 182H356C353.791 182 352 183.791 352 186V204C352 206.209 353.791 208 356 208H377C379.209 208 381 206.209 381 204V186C381 183.791 379.209 182 377 182Z" fill="#2E3A59" fill-opacity="0.4"/>
<path d="M360.822 193.168C363.02 193.168 364.294 191.824 364.294 190.158C364.294 188.66 363.3 187.61 361.606 187.54L363.944 185.398V183.9H357.63V185.636H361.438L358.778 188.086L359.814 189.304C360.164 189.052 360.584 188.94 360.962 188.94C361.816 188.94 362.278 189.416 362.278 190.13C362.278 190.942 361.704 191.432 360.808 191.432C359.898 191.432 359.296 190.97 358.876 190.074L357.21 190.76C357.756 192.188 359.016 193.168 360.822 193.168ZM366.451 193.168C367.123 193.168 367.655 192.664 367.655 192.02C367.655 191.376 367.123 190.858 366.451 190.858C365.779 190.858 365.247 191.376 365.247 192.02C365.247 192.664 365.779 193.168 366.451 193.168ZM372.401 193.168C374.739 193.168 376.307 191.25 376.307 188.45C376.307 185.664 374.739 183.732 372.401 183.732C370.063 183.732 368.481 185.664 368.481 188.45C368.481 191.25 370.063 193.168 372.401 193.168ZM372.401 191.292C371.379 191.292 370.595 190.424 370.595 188.45C370.595 186.476 371.379 185.622 372.401 185.622C373.409 185.622 374.207 186.476 374.207 188.45C374.207 190.424 373.409 191.292 372.401 191.292Z" fill="white"/>
<path d="M356.876 197.052C357.728 197.052 358.58 197.412 358.58 198.624C358.58 199.824 357.728 200.196 356.876 200.196H355.124V197.052H356.876ZM356.876 201.036C358.544 201.036 359.588 200.112 359.588 198.612C359.588 197.124 358.544 196.2 356.876 196.2H354.14V204H355.124V201.036H356.876ZM363.346 204.144C365.038 204.144 366.166 202.8 366.166 201.096C366.166 199.38 365.038 198.036 363.346 198.036C361.654 198.036 360.526 199.38 360.526 201.096C360.526 202.8 361.654 204.144 363.346 204.144ZM363.346 203.316C362.29 203.316 361.51 202.488 361.51 201.096C361.51 199.704 362.29 198.864 363.346 198.864C364.39 198.864 365.17 199.704 365.17 201.096C365.17 202.488 364.39 203.316 363.346 203.316ZM368.21 196.86C368.582 196.86 368.894 196.56 368.894 196.2C368.894 195.84 368.582 195.552 368.21 195.552C367.838 195.552 367.526 195.84 367.526 196.2C367.526 196.56 367.838 196.86 368.21 196.86ZM368.69 198.18H367.73V204H368.69V198.18ZM371.596 200.652C371.596 199.548 372.232 198.9 373.276 198.9C374.32 198.9 374.812 199.512 374.812 200.568V204H375.772V200.532C375.772 199.104 375.136 198.036 373.468 198.036C372.652 198.036 371.932 198.432 371.548 199.248V198.18H370.636V204H371.596V200.652ZM380.788 198.972V198.18H378.856V196.776H378.148L377.944 198.18H376.852V198.972H377.896V202.212C377.896 203.508 378.616 204.144 379.636 204.144C380.212 204.144 380.692 203.976 381.184 203.58L380.764 202.896C380.404 203.172 380.116 203.304 379.744 203.304C379.216 203.304 378.856 202.956 378.856 202.212V198.972H380.788Z" fill="white"/>
<path d="M523.628 55.542H520.94L522.284 51.468L523.628 55.542ZM524.776 59H526.4L523.208 49.9H521.444L518.252 59H519.792L520.534 56.76H524.034L524.776 59ZM532.324 59H533.752V52.14H532.212V56.046C532.212 57.152 531.624 57.81 530.588 57.81C529.538 57.81 529.076 57.18 529.076 56.116V52.14H527.536V56.186C527.536 57.894 528.236 59.168 530.14 59.168C531.12 59.168 531.918 58.706 532.324 57.74V59ZM538.653 53.078C539.563 53.078 540.151 53.582 540.151 54.324C540.151 55.094 539.633 55.57 538.653 55.57C537.757 55.57 537.155 55.052 537.155 54.324C537.155 53.54 537.687 53.078 538.653 53.078ZM542.265 59.518C542.265 58.44 541.495 57.74 540.053 57.74H537.407C536.917 57.74 536.693 57.53 536.693 57.222C536.693 56.914 536.917 56.676 537.407 56.676H538.639H538.653C540.501 56.676 541.663 55.85 541.663 54.464C541.663 54.002 541.509 53.624 541.173 53.288L542.587 53.414V52.14H539.857C539.493 52.028 539.101 51.972 538.653 51.972C536.875 51.972 535.657 52.826 535.657 54.324C535.657 55.108 535.993 55.71 536.581 56.116C535.741 56.34 535.335 56.9 535.335 57.544C535.335 58.146 535.685 58.664 536.301 58.93L535.559 59.07C535.335 59.322 535.209 59.644 535.209 59.994C535.209 61.044 536.217 61.968 538.597 61.968C541.103 61.968 542.265 60.82 542.265 59.518ZM538.625 60.876C537.281 60.876 536.749 60.428 536.749 59.77C536.749 59.546 536.819 59.322 536.945 59.098C537.071 59.112 537.197 59.126 537.323 59.126H539.829C540.501 59.126 540.795 59.322 540.795 59.798C540.795 60.428 540.053 60.876 538.625 60.876ZM553.481 59V57.642H549.001L550.555 56.466C552.683 54.926 553.257 53.89 553.257 52.602C553.257 51.006 552.067 49.732 550.093 49.732C548.455 49.732 547.265 50.67 546.677 52.126L548.077 52.644C548.539 51.692 549.141 51.104 550.093 51.104C551.045 51.104 551.619 51.692 551.619 52.602C551.619 53.512 551.199 54.212 549.519 55.57L546.845 57.754V59H553.481ZM558.367 59.168C560.691 59.168 562.189 57.236 562.189 54.45C562.189 51.678 560.691 49.732 558.367 49.732C556.043 49.732 554.531 51.678 554.531 54.45C554.531 57.236 556.043 59.168 558.367 59.168ZM558.367 57.698C557.107 57.698 556.197 56.662 556.197 54.45C556.197 52.238 557.107 51.202 558.367 51.202C559.613 51.202 560.537 52.238 560.537 54.45C560.537 56.662 559.613 57.698 558.367 57.698ZM569.901 59V57.642H565.421L566.975 56.466C569.103 54.926 569.677 53.89 569.677 52.602C569.677 51.006 568.487 49.732 566.513 49.732C564.875 49.732 563.685 50.67 563.097 52.126L564.497 52.644C564.959 51.692 565.561 51.104 566.513 51.104C567.465 51.104 568.039 51.692 568.039 52.602C568.039 53.512 567.619 54.212 565.939 55.57L563.265 57.754V59H569.901ZM573.849 59V49.802H572.645C572.351 50.32 571.735 50.53 570.839 50.53V51.79H572.267V59H573.849Z" fill="#2E3A59"/>
<path fill-rule="evenodd" clip-rule="evenodd" d="M589.312 51.8333C589.11 51.8333 588.907 51.915 588.753 52.0775C588.443 52.4033 588.443 52.93 588.753 53.2558L591.369 56.01L588.852 58.7541C588.549 59.0858 588.557 59.6133 588.872 59.9325C589.187 60.2516 589.688 60.2425 589.991 59.9125L593.048 56.5791C593.348 56.2516 593.344 55.7325 593.039 55.4108L589.872 52.0775C589.718 51.915 589.515 51.8333 589.312 51.8333Z" fill="#2E3A59"/>
<path fill-rule="evenodd" clip-rule="evenodd" d="M510.022 51.8335C509.825 51.8335 509.629 51.9185 509.482 52.0876L506.585 55.421C506.302 55.7485 506.305 56.2676 506.595 56.5893L509.595 59.9226C509.887 60.2485 510.362 60.2485 510.655 59.9226C510.948 59.5968 510.948 59.0701 510.655 58.7443L508.177 55.9901L510.561 53.246C510.849 52.9143 510.841 52.3868 510.543 52.0676C510.397 51.911 510.209 51.8335 510.022 51.8335Z" fill="#2E3A59"/>
</g>
<defs>
<filter id="filter0_d_44_4090" x="0" y="0" width="650" height="444" filterUnits="userSpaceOnUse" color-interpolation-filters="sRGB">
<feFlood flood-opacity="0" result="BackgroundImageFix"/>
<feColorMatrix in="SourceAlpha" type="matrix" values="0 0 0 0 0 0 0 0 0 0 0 0 0 0 0 0 0 0 127 0" result="hardAlpha"/>
<feOffset dx="-1" dy="14"/>
<feGaussianBlur stdDeviation="20"/>
<feComposite in2="hardAlpha" operator="out"/>
<feColorMatrix type="matrix" values="0 0 0 0 0 0 0 0 0 0 0 0 0 0 0 0 0 0 0.1 0"/>
<feBlend mode="normal" in2="BackgroundImageFix" result="effect1_dropShadow_44_4090"/>
<feBlend mode="normal" in="SourceGraphic" in2="effect1_dropShadow_44_4090" result="shape"/>
</filter>
<linearGradient id="paint0_linear_44_4090" x1="367" y1="285.146" x2="367" y2="167" gradientUnits="userSpaceOnUse">
<stop stop-color="#8791AB" stop-opacity="0.4"/>
<stop offset="1" stop-color="#8791AB" stop-opacity="0"/>
</linearGradient>
</defs>
</svg>
