<svg width="37" height="33" viewBox="0 0 37 33" fill="none" xmlns="http://www.w3.org/2000/svg">
<path d="M34.5608 13.5058C34.9812 12.3949 35.127 11.2179 34.9885 10.0534C34.85 8.88888 34.4305 7.76388 33.758 6.75363C32.7611 5.22558 31.2382 4.01577 29.4093 3.29876C27.5804 2.58176 25.5398 2.39464 23.5821 2.76439C22.6991 1.88867 21.6138 1.18903 20.3986 0.712314C19.1835 0.2356 17.8667 -0.0072029 16.5363 0.000162698C14.5348 -0.00408853 12.5834 0.551125 10.9635 1.58577C9.34368 2.6204 8.13904 4.081 7.52328 5.75697C6.21939 5.99186 4.98755 6.46916 3.91024 7.15692C2.83292 7.84468 1.935 8.72702 1.27657 9.7449C0.27166 11.2688 -0.157292 13.034 0.0515719 14.7863C0.260436 16.5385 1.09632 18.187 2.43868 19.4942C2.01837 20.6051 1.87256 21.7821 2.01102 22.9466C2.14947 24.1111 2.56899 25.2361 3.2415 26.2464C4.23855 27.7744 5.76138 28.9841 7.59032 29.7011C9.41924 30.4181 11.4598 30.6053 13.4174 30.2356C14.3004 31.1113 15.3858 31.8109 16.6009 32.2877C17.816 32.7644 19.1328 33.0072 20.4632 32.9998C22.4658 33.0045 24.4181 32.449 26.0386 31.4137C27.6591 30.3784 28.864 28.9167 29.4792 27.2398C30.7831 27.0049 32.0149 26.5276 33.0923 25.8398C34.1695 25.1521 35.0674 24.2697 35.7259 23.2518C36.7296 21.7281 37.1575 19.9633 36.9481 18.2117C36.7388 16.4602 35.9028 14.8124 34.5608 13.5058ZM20.4662 30.8425C18.8223 30.8446 17.2301 30.338 15.9678 29.4113C16.0247 29.384 16.1246 29.3358 16.1896 29.3008L23.6561 25.5054C23.8435 25.4116 23.9991 25.2755 24.1069 25.1112C24.2148 24.9468 24.271 24.7602 24.2696 24.5706V15.3072L27.4256 16.9109C27.4421 16.9181 27.4563 16.9288 27.4671 16.9421C27.4778 16.9554 27.4845 16.9708 27.4869 16.9869V24.6583C27.4845 26.2969 26.7443 27.8678 25.4284 29.0269C24.1124 30.1861 22.328 30.839 20.4662 30.8425ZM5.36761 25.1678C4.54423 23.9158 4.24747 22.4488 4.52929 21.0236C4.58473 21.0529 4.68157 21.105 4.75107 21.1401L12.2175 24.9355C12.4036 25.0312 12.6153 25.0817 12.8308 25.0817C13.0462 25.0817 13.2579 25.0312 13.444 24.9355L22.5598 20.3035V23.5108C22.5608 23.5271 22.5573 23.5435 22.5494 23.5584C22.5415 23.5732 22.5296 23.5862 22.5147 23.596L14.9669 27.431C13.3524 28.2493 11.435 28.4705 9.63542 28.0462C7.8358 27.6219 6.30095 26.5867 5.36761 25.1678ZM3.40341 10.8235C4.22322 9.56984 5.5181 8.61003 7.06124 8.11198C7.06124 8.16857 7.05755 8.26881 7.05755 8.33836V15.9291C7.05624 16.1187 7.11233 16.3051 7.22003 16.4694C7.32774 16.6336 7.48318 16.7695 7.6704 16.8633L16.7861 21.4947L13.6303 23.0983C13.6147 23.1073 13.5968 23.1128 13.5783 23.1143C13.5597 23.1158 13.541 23.1132 13.5238 23.1068L5.97528 19.2685C4.36365 18.4471 3.18787 17.0969 2.70575 15.5138C2.22364 13.9308 2.47453 12.2441 3.40341 10.8235ZM29.3321 16.1334L20.2163 11.5014L23.3722 9.89843C23.3878 9.88944 23.4057 9.88391 23.4242 9.88243C23.4428 9.88094 23.4614 9.88358 23.4786 9.89002L31.0272 13.725C32.1837 14.3129 33.1258 15.1785 33.7435 16.2206C34.3611 17.2626 34.6286 18.4379 34.5147 19.6089C34.4008 20.7799 33.91 21.8981 33.1001 22.8326C32.2902 23.7671 31.1944 24.4792 29.9412 24.8854C29.9412 24.8281 29.9412 24.728 29.9412 24.6583V17.0676C29.943 16.8783 29.8875 16.6921 29.7804 16.5279C29.6734 16.3637 29.5187 16.2276 29.3321 16.1334ZM32.4732 11.9731C32.4177 11.9431 32.3209 11.8917 32.2514 11.8567L24.7849 8.06124C24.5988 7.96571 24.3872 7.9153 24.1717 7.9153C23.9563 7.9153 23.7446 7.96571 23.5585 8.06124L14.4427 12.6933V9.48602C14.4417 9.4696 14.4452 9.45326 14.4531 9.43841C14.461 9.42356 14.4729 9.41061 14.4878 9.40079L22.0356 5.56896C23.1919 4.9822 24.5142 4.69735 25.8478 4.74773C27.1814 4.79811 28.471 5.18164 29.5659 5.85344C30.6608 6.52525 31.5157 7.45755 32.0306 8.54131C32.5454 9.62503 32.699 10.8153 32.4732 11.9731ZM12.7269 17.6896L9.57026 16.0859C9.55377 16.0787 9.53942 16.0679 9.52873 16.0547C9.51805 16.0414 9.5112 16.026 9.50895 16.0098V8.33836C9.5098 7.16343 9.89098 6.013 10.6078 5.02174C11.3247 4.03049 12.3475 3.23944 13.5567 2.74118C14.7659 2.24292 16.1112 2.05808 17.4354 2.20828C18.7597 2.35848 20.0079 2.83751 21.0339 3.5893C20.977 3.61663 20.8779 3.66477 20.8121 3.6999L13.3457 7.49527C13.1583 7.58899 13.0027 7.72494 12.8948 7.88915C12.787 8.05332 12.7309 8.23985 12.7321 8.42944L12.7269 17.6896ZM14.4412 14.4368L18.5012 12.3732L22.5612 14.4354V18.5613L18.5012 20.6236L14.4412 18.5613V14.4368Z" fill="#B1B4D9"/>
</svg>
