<svg width="64" height="64" viewBox="0 0 64 64" fill="none" xmlns="http://www.w3.org/2000/svg">
<rect width="64" height="64" rx="21" fill="#D8F8F8"/>
<path d="M32 26.1667V30.5417M32 26.1667C33.6108 26.1667 34.9167 24.8609 34.9167 23.25C34.9167 21.6392 33.6108 20.3334 32 20.3334C30.3892 20.3334 29.0833 21.6392 29.0833 23.25C29.0833 24.8609 30.3892 26.1667 32 26.1667ZM32 30.5417C30.3892 30.5417 29.0833 31.8475 29.0833 33.4584C29.0833 35.0692 30.3892 36.375 32 36.375C33.6108 36.375 34.9167 35.0692 34.9167 33.4584C34.9167 31.8475 33.6108 30.5417 32 30.5417ZM26.1666 30.9064L29.0833 32.7292M37.8333 30.9064L34.9167 32.7292M26.8958 38.5625L29.8125 35.6459M37.1042 38.5625L34.1875 35.6459M26.1667 29.0834C26.1667 30.6942 24.8608 32 23.25 32C21.6392 32 20.3333 30.6942 20.3333 29.0834C20.3333 27.4725 21.6392 26.1667 23.25 26.1667C24.8608 26.1667 26.1667 27.4725 26.1667 29.0834ZM43.6667 29.0834C43.6667 30.6942 42.3608 32 40.75 32C39.1392 32 37.8333 30.6942 37.8333 29.0834C37.8333 27.4725 39.1392 26.1667 40.75 26.1667C42.3608 26.1667 43.6667 27.4725 43.6667 29.0834ZM42.2083 40.75C42.2083 42.3609 40.9025 43.6667 39.2917 43.6667C37.6808 43.6667 36.375 42.3609 36.375 40.75C36.375 39.1392 37.6808 37.8334 39.2917 37.8334C40.9025 37.8334 42.2083 39.1392 42.2083 40.75ZM27.625 40.75C27.625 42.3609 26.3192 43.6667 24.7083 43.6667C23.0975 43.6667 21.7917 42.3609 21.7917 40.75C21.7917 39.1392 23.0975 37.8334 24.7083 37.8334C26.3192 37.8334 27.625 39.1392 27.625 40.75Z" stroke="#69C6C6" stroke-width="2" stroke-linecap="round" stroke-linejoin="round"/>
</svg>
