<svg width="48" height="48" viewBox="0 0 48 48" fill="none" xmlns="http://www.w3.org/2000/svg">
<rect width="48" height="48" rx="14" fill="#F3EDDA"/>
<path d="M32.4 24H36V33.6C36 34.2365 35.7471 34.847 35.2971 35.2971C34.847 35.7471 34.2365 36 33.6 36H32.4V24ZM30 14.4V36H14.4C13.7635 36 13.153 35.7471 12.7029 35.2971C12.2529 34.847 12 34.2365 12 33.6V14.4C12 13.7635 12.2529 13.153 12.7029 12.7029C13.153 12.2529 13.7635 12 14.4 12H27.6C28.2365 12 28.847 12.2529 29.2971 12.7029C29.7471 13.153 30 13.7635 30 14.4ZM21.6 28.8H15.6V31.2H21.6V28.8ZM26.4 22.8H15.6V25.2H26.4V22.8ZM26.4 16.8H15.6V19.2H26.4V16.8Z" fill="#D7CFB7"/>
</svg>
