<svg width="48" height="48" viewBox="0 0 48 48" fill="none" xmlns="http://www.w3.org/2000/svg">
<rect width="48" height="48" rx="14" fill="#D3D6F1"/>
<g clip-path="url(#clip0_43_3254)">
<path d="M34.7826 33.5375H14.4348V13.2452C14.4348 12.5728 13.8897 12.0278 13.2174 12.0278C12.545 12.0278 12 12.5728 12 13.2452V34.7549C12 35.4272 12.545 35.9723 13.2174 35.9723H34.7826C35.455 35.9723 36 35.4272 36 34.7549C36 34.0825 35.455 33.5375 34.7826 33.5375Z" fill="#A6A5E1"/>
<path d="M17.2558 28.3446C17.5853 28.3446 17.9138 28.2116 18.1539 27.9495L21.5448 24.2471L27.6101 26.911C28.1318 27.1401 28.743 26.9766 29.0805 26.5174L32.8014 21.4556L33.114 23.6345C33.2011 24.2414 33.7217 24.6793 34.3175 24.6792C34.375 24.6792 34.4333 24.6751 34.4918 24.6667C35.1574 24.5712 35.6195 23.9543 35.524 23.2888L34.7848 18.135C34.6894 17.4694 34.0723 17.0075 33.407 17.1028L28.2532 17.842C27.5877 17.9374 27.1255 18.5543 27.221 19.2198C27.3165 19.8854 27.9334 20.3476 28.5989 20.2521L30.9078 19.9209L27.6964 24.2896L21.7255 21.6672C21.2482 21.4576 20.6904 21.5751 20.3382 21.9595L16.3584 26.3049C15.9043 26.8007 15.9381 27.5708 16.4339 28.0249C16.6676 28.239 16.9622 28.3446 17.2558 28.3446Z" fill="#A6A5E1"/>
</g>
<defs>
<clipPath id="clip0_43_3254">
<rect width="24" height="24" fill="white" transform="translate(12 12)"/>
</clipPath>
</defs>
</svg>
