<svg width="48" height="48" viewBox="0 0 48 48" fill="none" xmlns="http://www.w3.org/2000/svg">
<rect width="48" height="48" rx="14" fill="#CFE9E9"/>
<path d="M18.4615 26.75H12.9231C12.4135 26.75 12 27.1607 12 27.6667V34.0833C12 34.5893 12.4135 35 12.9231 35H18.4615C18.9711 35 19.3846 34.5893 19.3846 34.0833V27.6667C19.3846 27.1607 18.9711 26.75 18.4615 26.75ZM18.4615 19.4167H12.9231C12.4135 19.4167 12 19.8273 12 20.3333V24.9167C12 25.4227 12.4135 25.8333 12.9231 25.8333H18.4615C18.9711 25.8333 19.3846 25.4227 19.3846 24.9167V20.3333C19.3846 19.8273 18.9711 19.4167 18.4615 19.4167ZM26.7692 13H21.2308C20.7212 13 20.3077 13.4107 20.3077 13.9167V21.25C20.3077 21.756 20.7212 22.1667 21.2308 22.1667H26.7692C27.2788 22.1667 27.6923 21.756 27.6923 21.25V13.9167C27.6923 13.4107 27.2788 13 26.7692 13ZM26.7692 23.0833H21.2308C20.7212 23.0833 20.3077 23.494 20.3077 24V27.6667C20.3077 28.1727 20.7212 28.5833 21.2308 28.5833H26.7692C27.2788 28.5833 27.6923 28.1727 27.6923 27.6667V24C27.6923 23.494 27.2788 23.0833 26.7692 23.0833ZM35.0769 27.6667H29.5385C29.0289 27.6667 28.6154 28.0773 28.6154 28.5833V34.0833C28.6154 34.5893 29.0289 35 29.5385 35H35.0769C35.5865 35 36 34.5893 36 34.0833V28.5833C36 28.0773 35.5865 27.6667 35.0769 27.6667ZM35.0769 13H29.5385C29.0289 13 28.6154 13.4107 28.6154 13.9167V18.5C28.6154 19.006 29.0289 19.4167 29.5385 19.4167H35.0769C35.5865 19.4167 36 19.006 36 18.5V13.9167C36 13.4107 35.5865 13 35.0769 13ZM19.3846 13.4583C19.3846 13.7113 19.1778 13.9167 18.9231 13.9167H12.4615C12.2068 13.9167 12 13.7113 12 13.4583C12 13.2053 12.2068 13 12.4615 13H18.9231C19.1778 13 19.3846 13.2053 19.3846 13.4583ZM19.3846 15.2917C19.3846 15.5447 19.1778 15.75 18.9231 15.75H12.4615C12.2068 15.75 12 15.5447 12 15.2917C12 15.0387 12.2068 14.8333 12.4615 14.8333H18.9231C19.1778 14.8333 19.3846 15.0387 19.3846 15.2917ZM19.3846 17.125C19.3846 17.378 19.1778 17.5833 18.9231 17.5833H12.4615C12.2068 17.5833 12 17.378 12 17.125C12 16.872 12.2068 16.6667 12.4615 16.6667H18.9231C19.1778 16.6667 19.3846 16.872 19.3846 17.125ZM27.6923 30.875C27.6923 31.128 27.4855 31.3333 27.2308 31.3333H20.7692C20.5145 31.3333 20.3077 31.128 20.3077 30.875C20.3077 30.622 20.5145 30.4167 20.7692 30.4167H27.2308C27.4855 30.4167 27.6923 30.622 27.6923 30.875ZM27.6923 32.7083C27.6923 32.9613 27.4855 33.1667 27.2308 33.1667H20.7692C20.5145 33.1667 20.3077 32.9613 20.3077 32.7083C20.3077 32.4553 20.5145 32.25 20.7692 32.25H27.2308C27.4855 32.25 27.6923 32.4553 27.6923 32.7083ZM27.6923 34.5417C27.6923 34.7947 27.4855 35 27.2308 35H20.7692C20.5145 35 20.3077 34.7947 20.3077 34.5417C20.3077 34.2887 20.5145 34.0833 20.7692 34.0833H27.2308C27.4855 34.0833 27.6923 34.2887 27.6923 34.5417ZM36 21.7083C36 21.9613 35.7932 22.1667 35.5385 22.1667H29.0769C28.8222 22.1667 28.6154 21.9613 28.6154 21.7083C28.6154 21.4553 28.8222 21.25 29.0769 21.25H35.5385C35.7932 21.25 36 21.4553 36 21.7083ZM36 23.5417C36 23.7947 35.7932 24 35.5385 24H29.0769C28.8222 24 28.6154 23.7947 28.6154 23.5417C28.6154 23.2887 28.8222 23.0833 29.0769 23.0833H35.5385C35.7932 23.0833 36 23.2887 36 23.5417ZM36 25.375C36 25.628 35.7932 25.8333 35.5385 25.8333H29.0769C28.8222 25.8333 28.6154 25.628 28.6154 25.375C28.6154 25.122 28.8222 24.9167 29.0769 24.9167H35.5385C35.7932 24.9167 36 25.122 36 25.375Z" fill="#A2CBCB"/>
</svg>
