<svg width="64" height="64" viewBox="0 0 64 64" fill="none" xmlns="http://www.w3.org/2000/svg">
<rect width="64" height="64" rx="21" fill="#F7F2D9"/>
<path d="M26.1563 34.3694C25.2511 34.4103 24.3842 34.7284 23.6854 35.2763C22.9865 35.8241 22.4932 36.5721 22.2794 37.4084C22.1858 37.7614 21.7723 37.9133 21.4129 37.8595C21.0215 37.8011 20.8222 37.3102 20.9698 36.8894C21.4942 35.3676 22.5625 34.2011 23.9582 33.57C23.3439 33.1017 22.8981 32.4637 22.6823 31.7442C22.4665 31.0248 22.4914 30.2595 22.7536 29.5541C23.0158 28.8487 23.5023 28.2381 24.1458 27.8067C24.7894 27.3753 25.5581 27.1445 26.3458 27.1462C28.448 27.1462 30.1538 28.7685 30.1538 30.7601C30.1538 31.8635 29.6295 32.8523 28.8074 33.5185C30.2449 34.1287 31.3378 35.3092 31.9261 36.831C32.0886 37.2518 31.9828 37.6702 31.6135 37.8595C31.5108 37.8947 31.4014 37.9092 31.2925 37.9019C31.1835 37.8947 31.0774 37.866 30.9807 37.8176C30.8841 37.7692 30.7992 37.7022 30.7315 37.6209C30.6637 37.5395 30.6145 37.4457 30.5871 37.3453C30.0948 35.55 28.5686 34.4302 26.6363 34.3648C26.4766 34.3758 26.3162 34.3774 26.1563 34.3694ZM45.888 38.6543V35.2367C45.888 34.7131 46.3951 34.297 46.9834 34.297C47.1158 34.2929 47.2476 34.3142 47.3712 34.3597C47.4947 34.4051 47.6072 34.4738 47.7022 34.5615C47.7971 34.6492 47.8724 34.7543 47.9235 34.8703C47.9747 34.9863 48.0007 35.1109 48 35.2367V39.4935C48 40.4235 47.611 41.3154 46.9185 41.973C46.2261 42.6306 45.2869 43 44.3077 43H20.5809C18.0554 43 16 41.2234 16 39.026V23.5111C16 22.5812 16.389 21.6893 17.0815 21.0317C17.7739 20.3741 18.713 20.0047 19.6923 20.0047L43.4166 20C45.9446 20 48 21.7766 48 23.9763L47.9951 30.8022C47.9778 31.3095 47.552 31.6742 46.9834 31.6742C46.4098 31.6742 45.9077 31.3095 45.888 30.7975L45.8806 23.9763C45.8806 22.8215 44.7729 22.015 43.4191 22.015H20.5785C19.9256 22.015 19.2995 22.2613 18.8379 22.6997C18.3763 23.1381 18.1169 23.7327 18.1169 24.3527V39.0284C18.1169 40.1808 19.2246 40.9943 20.5785 40.9943H43.424C44.0768 40.9943 44.7029 40.748 45.1646 40.3096C45.6262 39.8712 45.8855 39.2767 45.8855 38.6567L45.888 38.6543ZM26.3483 28.7264C25.7981 28.7515 25.2791 28.9767 24.8991 29.3553C24.519 29.734 24.307 30.237 24.307 30.7601C24.307 31.2833 24.519 31.7863 24.8991 32.165C25.2791 32.5436 25.7981 32.7688 26.3483 32.7939C26.8985 32.7688 27.4175 32.5436 27.7975 32.165C28.1776 31.7863 28.3896 31.2833 28.3896 30.7601C28.3896 30.237 28.1776 29.734 27.7975 29.3553C27.4175 28.9767 26.8985 28.7515 26.3483 28.7264ZM41.1668 37.7777H35.5692C34.912 37.7777 34.3631 37.3803 34.3631 36.866C34.3631 36.3518 34.912 35.9567 35.5692 35.9567H41.1618C41.8215 35.9567 42.368 36.3518 42.368 36.8684C42.368 37.3827 41.8191 37.7777 41.1618 37.7777H41.1668ZM41.1668 28.9648H35.5692C34.912 28.9648 34.3631 28.5698 34.3631 28.0555C34.3631 27.5412 34.912 27.1462 35.5692 27.1462H41.1618C41.8215 27.1462 42.368 27.5412 42.368 28.0578C42.368 28.5721 41.8191 28.9648 41.1618 28.9648H41.1668ZM41.1668 33.0089H35.5692C34.912 33.0089 34.3631 32.6162 34.3631 32.0996C34.3631 31.5853 34.912 31.1903 35.5692 31.1903H41.1618C41.8191 31.1903 42.368 31.5853 42.368 32.1019C42.368 32.6162 41.8215 33.0089 41.1618 33.0089H41.1668Z" fill="#C9C8AD"/>
</svg>
