<svg width="229" height="496" viewBox="0 0 229 496" fill="none" xmlns="http://www.w3.org/2000/svg">
<path d="M228.497 27.6093V27.6075C228.457 19.0425 225.957 12.4353 221.377 7.97049C216.798 3.50706 210.193 1.23608 202.045 1.23608H181.45C179.307 1.23608 177.558 2.98423 177.558 5.12721V6.62078C177.558 13.7143 171.8 19.4733 164.706 19.4733H64.1653C57.0716 19.4733 51.3127 13.7143 51.3127 6.62078V5.12721C51.3127 2.98423 49.5645 1.23608 47.4216 1.23608H26.8261C18.678 1.23608 12.0727 3.507 7.50357 7.97076C2.93291 12.4361 0.452892 19.0439 0.452892 27.6093V469.706C0.452892 478.298 3.53016 484.65 8.50229 488.852C13.4648 493.045 20.2744 495.058 27.6908 495.058H201.259C208.656 495.058 215.465 493.045 220.432 488.852C225.409 484.65 228.497 478.298 228.497 469.706V27.6093Z" stroke="black" stroke-opacity="0.1" stroke-width="0.692227"/>
</svg>
