<svg width="289" height="480" viewBox="0 0 289 480" fill="none" xmlns="http://www.w3.org/2000/svg">
<path opacity="0.1" fill-rule="evenodd" clip-rule="evenodd" d="M501.125 463.68C506.402 452.39 505.685 439.14 499.064 424.36L282.083 -59.9456C276.357 -72.7259 267.842 -81.5949 257.48 -85.6169C246.614 -89.831 234.033 -88.7874 220.166 -82.5746L30.0687 2.59349C16.2016 8.8063 7.04786 17.5007 2.95973 28.4144C-0.955929 38.7811 -0.00522891 51.0389 5.74016 63.8627L222.721 548.168C229.362 562.992 238.754 572.303 250.691 575.88C260.775 578.931 272.514 577.639 284.686 572.185L475.739 486.589C487.911 481.136 496.69 473.235 501.125 463.68ZM220.983 -80.7484L30.8865 4.41974C3.5435 16.6701 -3.41419 38.4214 7.60916 63.0257L224.59 547.332C238.301 577.935 262.33 579.957 283.892 570.297L474.901 484.72C496.463 475.06 510.949 455.782 497.238 425.179L280.257 -59.1271C269.233 -83.7315 248.37 -93.0182 220.983 -80.7484ZM496.759 425.392C503.07 439.477 503.774 452.001 498.825 462.623C494.648 471.592 486.27 479.104 474.707 484.285L283.653 569.881C272.047 575.082 260.907 576.314 251.433 573.46C240.232 570.127 231.354 561.264 225.025 547.136L8.04385 62.8304C2.5127 50.4847 1.58427 39.2087 5.33196 29.2827C9.19963 19.0419 17.8857 10.818 31.1007 4.89733L221.198 -80.2707C234.456 -86.2109 246.332 -87.1991 256.548 -83.2685C266.407 -79.4384 274.247 -71.2591 279.778 -58.9134L496.759 425.392Z" fill="black"/>
</svg>
