<svg width="304" height="483" viewBox="0 0 304 483" fill="none" xmlns="http://www.w3.org/2000/svg">
<path opacity="0.1" fill-rule="evenodd" clip-rule="evenodd" d="M289.01 614.099C298.441 605.954 303.204 593.569 303.204 577.373V46.6826C303.204 32.6782 299.06 21.1031 291.248 13.1959C283.055 4.90756 271.147 0.715759 255.951 0.715759H47.6478C32.4525 0.715759 20.544 4.90756 12.3509 13.1959C4.53896 21.0555 0.394798 32.6306 0.394798 46.6826V577.373C0.394798 593.617 5.1582 605.954 14.5897 614.099C22.5446 621.006 33.7863 624.626 47.1238 624.626H256.475C269.813 624.626 281.055 621.006 289.01 614.099ZM255.951 2.71647H47.6474C17.6856 2.71647 2.44273 19.7218 2.44273 46.6827V577.374C2.44273 610.908 23.5446 622.578 47.1711 622.578H256.475C280.102 622.578 301.203 610.908 301.203 577.374V46.6827C301.203 19.7218 285.961 2.71647 255.951 2.71647ZM300.679 577.374C300.679 592.807 296.202 604.525 287.342 612.194C279.863 618.672 269.146 622.102 256.475 622.102H47.1235C34.4052 622.102 23.7352 618.672 16.2566 612.194C7.39669 604.573 2.91909 592.855 2.91909 577.374V46.6827C2.91909 33.1547 6.68218 22.4846 14.1607 14.9585C21.8774 7.1941 33.1667 3.24047 47.6475 3.24047H255.951C270.48 3.24047 281.721 7.1941 289.438 14.9585C296.869 22.4846 300.679 33.1547 300.679 46.6827V577.374Z" fill="black"/>
</svg>
