<svg width="493" height="192" viewBox="0 0 493 192" fill="none" xmlns="http://www.w3.org/2000/svg">
<path opacity="0.1" fill-rule="evenodd" clip-rule="evenodd" d="M501.517 552.747C506.794 541.457 506.077 528.208 499.455 513.428L282.474 29.1218C276.748 16.3414 268.234 7.4725 257.872 3.45044C247.006 -0.76359 234.424 0.279958 220.557 6.49277L30.4603 91.6609C16.5932 97.8737 7.43946 106.568 3.35133 117.482C-0.564327 127.848 0.386373 140.106 6.13176 152.93L223.113 637.236C229.754 652.059 239.145 661.371 251.083 664.948C261.166 667.999 272.906 666.706 285.077 661.253L476.131 575.656C488.302 570.203 497.081 562.303 501.517 552.747ZM221.375 8.31903L31.2781 93.4871C3.9351 105.737 -3.02259 127.489 8.00076 152.093L224.982 636.399C238.693 667.002 262.722 669.025 284.283 659.365L475.293 573.788C496.854 564.128 511.34 544.849 497.629 514.246L280.648 29.9403C269.625 5.33593 248.761 -3.95079 221.375 8.31903ZM497.151 514.46C503.461 528.544 504.166 541.069 499.216 551.69C495.04 560.66 486.661 568.172 475.098 573.352L284.045 658.949C272.438 664.149 261.299 665.382 251.825 662.527C240.623 659.195 231.746 650.332 225.416 636.204L8.43545 151.898C2.9043 139.552 1.97587 128.276 5.72356 118.35C9.59123 108.109 18.2773 99.8854 31.4923 93.9647L221.589 8.79664C234.848 2.85649 246.723 1.86824 256.94 5.79885C266.799 9.62896 274.639 17.8083 280.17 30.154L497.151 514.46Z" fill="black"/>
</svg>
