<svg width="505" height="352" viewBox="0 0 505 352" fill="none" xmlns="http://www.w3.org/2000/svg">
<path opacity="0.1" fill-rule="evenodd" clip-rule="evenodd" d="M500.788 237.422C506.065 226.132 505.348 212.882 498.726 198.102L281.745 -286.204C276.019 -298.984 267.505 -307.853 257.143 -311.875C246.277 -316.089 233.695 -315.045 219.828 -308.833L29.7314 -223.664C15.8643 -217.452 6.71049 -208.757 2.62235 -197.844C-1.2933 -187.477 -0.342601 -175.219 5.40279 -162.395L222.384 321.911C229.025 336.734 238.416 346.045 250.354 349.622C260.437 352.673 272.177 351.381 284.348 345.927L475.402 260.331C487.573 254.878 496.352 246.978 500.788 237.422ZM220.646 -307.006L30.5491 -221.838C3.20613 -209.588 -3.75157 -187.837 7.27179 -163.232L224.253 321.074C237.964 351.677 261.993 353.699 283.554 344.039L474.564 258.462C496.125 248.802 510.611 229.524 496.9 198.921L279.919 -285.385C268.896 -309.989 248.032 -319.276 220.646 -307.006ZM496.422 199.135C502.732 213.219 503.437 225.743 498.487 236.365C494.311 245.334 485.932 252.846 474.369 258.027L283.316 343.624C271.709 348.824 260.57 350.056 251.096 347.202C239.894 343.869 231.017 335.006 224.687 320.878L7.70648 -163.428C2.17532 -175.773 1.2469 -187.049 4.99459 -196.975C8.86225 -207.216 17.5483 -215.44 30.7633 -221.361L220.86 -306.529C234.119 -312.469 245.994 -313.457 256.211 -309.526C266.07 -305.696 273.91 -297.517 279.441 -285.171L496.422 199.135Z" fill="black"/>
</svg>
