<svg width="251" height="516" viewBox="0 0 251 516" fill="none" xmlns="http://www.w3.org/2000/svg">
<path opacity="0.1" fill-rule="evenodd" clip-rule="evenodd" d="M238.75 506.839C246.532 500.118 250.463 489.899 250.463 476.535V38.6453C250.463 27.0898 247.043 17.5388 240.597 11.0143C233.837 4.17534 224.011 0.716553 211.473 0.716553H39.5947C27.0566 0.716553 17.2305 4.17534 10.4702 11.0143C4.02426 17.4995 0.604782 27.0505 0.604782 38.6453V476.535C0.604782 489.938 4.53522 500.118 12.3175 506.839C18.8813 512.538 28.1572 515.525 39.1624 515.525H211.905C222.91 515.525 232.186 512.538 238.75 506.839ZM211.473 2.36746H39.5947C14.8722 2.36746 2.29481 16.3991 2.29481 38.6454V476.535C2.29481 504.206 19.7067 513.835 39.2016 513.835H211.905C231.4 513.835 248.812 504.206 248.812 476.535V38.6454C248.812 16.3991 236.234 2.36746 211.473 2.36746ZM248.379 476.535C248.379 489.27 244.685 498.939 237.374 505.267C231.203 510.612 222.36 513.442 211.905 513.442H39.1623C28.668 513.442 19.8638 510.612 13.693 505.267C6.38243 498.978 2.68782 489.309 2.68782 476.535V38.6453C2.68782 27.4829 5.79286 18.6787 11.9636 12.4686C18.331 6.06198 27.6461 2.79972 39.5946 2.79972H211.473C223.46 2.79972 232.736 6.06198 239.104 12.4686C245.235 18.6787 248.379 27.4829 248.379 38.6453V476.535Z" fill="black"/>
</svg>
