<svg width="52" height="52" viewBox="0 0 52 52" fill="none" xmlns="http://www.w3.org/2000/svg">
<g id="twitter">
<path id="Oval Copy" d="M26.0059 50.7836C39.8098 50.7836 51 39.6577 51 25.9332C51 12.2087 39.8098 1.08279 26.0059 1.08279C12.202 1.08279 1.01172 12.2087 1.01172 25.9332C1.01172 39.6577 12.202 50.7836 26.0059 50.7836Z" stroke="#B7B7B7"/>
<g id="logo-twitter">
<path id="Shape" d="M33.2902 21.3108C32.7546 21.579 32.219 21.6685 31.5942 21.7579C32.219 21.4002 32.6653 20.8637 32.8439 20.1483C32.3083 20.506 31.6834 20.6849 30.9693 20.8637C30.4337 20.3272 29.6303 19.9695 28.8269 19.9695C27.3094 19.9695 25.9705 21.3108 25.9705 22.9203C25.9705 23.1886 25.9705 23.3674 26.0597 23.5462C23.6496 23.4568 21.418 22.2944 19.9897 20.506C19.7219 20.9531 19.6327 21.4002 19.6327 22.0261C19.6327 23.0097 20.1683 23.9039 20.9716 24.4404C20.5253 24.4404 20.079 24.2616 19.6327 24.0827C19.6327 25.5134 20.6146 26.6759 21.9536 26.9441C21.6858 27.0335 21.418 27.0335 21.1502 27.0335C20.9716 27.0335 20.7931 27.0335 20.6146 26.9441C20.9716 28.1066 22.0428 29.0007 23.3818 29.0007C22.3999 29.8055 21.1502 30.2526 19.7219 30.2526C19.4541 30.2526 19.2756 30.2526 19.0078 30.2526C20.3468 31.0573 21.8643 31.5939 23.4711 31.5939C28.8269 31.5939 31.7727 27.123 31.7727 23.278C31.7727 23.1886 31.7727 23.0097 31.7727 22.9203C32.3975 22.4732 32.9331 21.9367 33.2902 21.3108Z" fill="#1E2532"/>
</g>
</g>
</svg>
